# xmcd CD database file
# Copyright (C) 1993-1998 Ti Kan
#
# Track frame offsets:
#	182
#	25322
#	40435
#	55955
#	69350
#	85502
#	105182
#	124865
#	148162
#	162392
#	186035
#	203457
#
# Disc length: 3059 seconds
#
# Revision: 0
# Processed by: cddbd v1.4b41PL1 Copyright (c) Steve Scherf et al.
# Submitted via: CDmax 1.5.4
#
DISCID=9c0bf10c
DTITLE=Benny - El Tiempo
DYEAR=1900
DGENRE=
TTITLE0=Sin ti
TTITLE1=No me va tan mal
TTITLE2=Mía
TTITLE3=Me das miedo
TTITLE4=Cielo
TTITLE5=Nuevo amanecer
TTITLE6=Canción de Luna
TTITLE7=Como un ángel
TTITLE8=Yo me enamore de ti
TTITLE9=Tu rosa
TTITLE10=Estoy
TTITLE11=El tiempo
EXTD=
EXTT0=
EXTT1=
EXTT2=
EXTT3=
EXTT4=
EXTT5=
EXTT6=
EXTT7=
EXTT8=
EXTT9=
EXTT10=
EXTT11=
PLAYORDER=
